<?xml version="1.0" encoding="iso-8859-1"?>
<!-- Generator: Adobe Illustrator 19.0.0, SVG Export Plug-In . SVG Version: 6.00 Build 0)  -->
<svg version="1.1" id="Layer_1" xmlns="http://www.w3.org/2000/svg" xmlns:xlink="http://www.w3.org/1999/xlink" x="0px" y="0px"
	 viewBox="0 0 459 459" style="enable-background:new 0 0 459 459;" xml:space="preserve">
<g>
	<path style="fill:#4CC18E;" d="M352.639,255.19v17.66c0,4.5-3.65,8.15-8.15,8.15h-5.49h-30.08h-158.84h-30.08h-5.49
		c-4.5,0-8.15-3.65-8.15-8.15v-17.66c0-10.28,8.08-18.67,18.23-19.17c0.32-0.01,0.63-0.02,0.95-0.02h30.05h147.82h30.05
		c0.32,0,0.63,0.01,0.95,0.02C344.559,236.52,352.639,244.91,352.639,255.19"/>
	<path style="fill:#418366;" d="M153.539,236h-28c-0.02,0-0.04,0-0.06,0c-0.299,0.001-0.59,0.01-0.89,0.02
		c-9.318,0.459-16.891,7.566-18.07,16.682c-0.105,0.815-0.16,1.645-0.16,2.488v17.66c0,4.5,3.65,8.15,8.15,8.15h5.49h22.51
		c-4.5,0-8.15-3.65-8.15-8.15v-17.66c0-10.28,8.08-18.67,18.23-19.17C152.909,236.01,153.219,236,153.539,236"/>
	<polyline style="fill:#F7B239;" points="308.919,359.46 308.919,389.54 150.079,389.54 150.079,359.46 308.919,359.46 	"/>
	<polyline style="fill:#F7B239;" points="338.999,281 338.069,303 331.709,453 308.919,453 308.919,281 338.999,281 	"/>
	<polyline style="fill:#F7B239;" points="150.079,281 150.079,453 127.289,453 120.929,303 119.999,281 150.079,281 	"/>
	<polyline style="fill:#A17A36;" points="308.919,359.46 289.919,359.46 289.919,389.54 308.919,389.54 308.919,359.46 	"/>
	<polyline style="fill:#A17A36;" points="169.079,359.46 150.079,359.46 150.079,389.54 169.079,389.54 169.079,359.46 	"/>
	<polyline style="fill:#A17A36;" points="150.079,281 142.509,281 119.999,281 120.929,303 150.079,303 150.079,281 	"/>
	<polyline style="fill:#A17A36;" points="338.999,281 308.919,281 308.919,303 338.069,303 338.999,281 	"/>
	<path style="fill:#F7B239;" d="M334.409,236v0.02c-0.32-0.01-0.63-0.02-0.95-0.02h-30.05v-47v-78.09
		c0-26.03-13.52-48.96-33.91-62.12c-11.54-7.46-25.27-11.79-40-11.79c-14.73,0-28.46,4.33-40,11.79
		c-20.39,13.16-33.91,36.09-33.91,62.12V189v47h-30.05c-0.32,0-0.63,0.01-0.95,0.02V236V110.91c0-28.97,11.74-55.2,30.73-74.18
		C174.299,17.74,200.529,6,229.499,6c57.94,0,104.91,46.97,104.91,104.91V236z"/>
	<path style="fill:#333333;" d="M340.409,230.973V110.91C340.409,49.754,290.655,0,229.499,0c-29.633,0-57.484,11.538-78.421,32.486
		c-20.95,20.939-32.488,48.791-32.488,78.424v120.063c-10.578,3.023-18.23,12.745-18.23,24.217v17.66
		c0,7.714,6.207,13.995,13.888,14.137l7.047,166.267c0.136,3.212,2.78,5.746,5.995,5.746h22.79c3.313,0,6-2.686,6-6v-57.46h146.84
		V453c0,3.314,2.687,6,6,6h22.79c3.215,0,5.858-2.534,5.994-5.746l7.047-166.267c7.681-0.141,13.888-6.422,13.888-14.137v-17.66
		C358.639,243.719,350.987,233.996,340.409,230.973z M159.563,40.971C178.236,22.289,203.072,12,229.499,12
		c54.54,0,98.911,44.371,98.911,98.91V230h-19V110.91c0-27.24-13.703-52.347-36.653-67.159C259.852,35.409,244.895,31,229.499,31
		c-15.395,0-30.353,4.409-43.254,12.749c-22.953,14.814-36.656,39.921-36.656,67.161V230h-19V110.91
		C130.589,84.483,140.878,59.646,159.563,40.971z M297.409,183h-21.91V60.992c13.881,12.754,21.91,30.711,21.91,49.918V183z
		 M263.499,183h-28.001V43.275c9.879,0.872,19.415,3.892,28.001,8.883V183z M223.499,183h-28V52.158
		c8.585-4.99,18.121-8.01,28-8.883V183z M183.499,183h-21.91v-72.09c0-19.207,8.028-37.163,21.91-49.918V183z M161.589,195h135.82
		v35h-135.82V195z M133.04,447l-6.781-160h17.82v160H133.04z M156.079,287h146.84v66.46h-146.84V287z M156.079,383.54v-18.08h146.84
		v18.08H156.079z M325.958,447h-11.039V287h17.821L325.958,447z M346.639,272.85c0,1.186-0.964,2.15-2.149,2.15H114.509
		c-1.186,0-2.15-0.964-2.15-2.15v-17.66c0-7.043,5.502-12.831,12.445-13.174c0.247-0.008,0.487-0.016,0.734-0.016h207.92
		c0.236,0,0.467,0.008,0.703,0.015c7,0.37,12.477,6.148,12.477,13.175v17.66H346.639z"/>
	<path style="fill:#FFFFFF;" d="M313.999,261.35h-101c-3.313,0-6-2.686-6-6s2.687-6,6-6h101c3.313,0,6,2.686,6,6
		S317.313,261.35,313.999,261.35z"/>
	<path style="fill:#FFFFFF;" d="M334.002,261.349c-1.58,0-3.13-0.64-4.25-1.76c-0.271-0.27-0.521-0.58-0.74-0.91
		c-0.22-0.32-0.4-0.67-0.55-1.03c-0.15-0.37-0.271-0.74-0.351-1.13c-0.069-0.38-0.109-0.78-0.109-1.17c0-1.58,0.64-3.13,1.75-4.24
		c0.28-0.28,0.59-0.53,0.92-0.75c0.32-0.21,0.67-0.4,1.03-0.55c0.359-0.15,0.739-0.26,1.119-0.34c1.961-0.39,4.03,0.25,5.421,1.64
		c0.279,0.27,0.529,0.58,0.75,0.91c0.21,0.32,0.399,0.67,0.55,1.04c0.149,0.36,0.26,0.74,0.34,1.12c0.08,0.38,0.12,0.78,0.12,1.17
		s-0.04,0.79-0.12,1.17c-0.08,0.39-0.19,0.76-0.34,1.13c-0.15,0.36-0.34,0.71-0.55,1.03c-0.221,0.33-0.471,0.64-0.75,0.91
		C337.122,260.709,335.572,261.349,334.002,261.349z"/>
</g>
<g>
</g>
<g>
</g>
<g>
</g>
<g>
</g>
<g>
</g>
<g>
</g>
<g>
</g>
<g>
</g>
<g>
</g>
<g>
</g>
<g>
</g>
<g>
</g>
<g>
</g>
<g>
</g>
<g>
</g>
</svg>
