<?xml version="1.0" encoding="iso-8859-1"?>
<!-- Generator: Adobe Illustrator 19.0.0, SVG Export Plug-In . SVG Version: 6.00 Build 0)  -->
<svg version="1.1" id="Layer_1" xmlns="http://www.w3.org/2000/svg" xmlns:xlink="http://www.w3.org/1999/xlink" x="0px" y="0px"
	 viewBox="0 0 512 512" style="enable-background:new 0 0 512 512;" xml:space="preserve">
<rect x="150.916" y="45.834" style="fill:#BA6B24;" width="210.166" height="377.035"/>
<g>
	<rect x="150.916" y="39.127" style="fill:#A55C20;" width="210.166" height="18.933"/>
	<rect x="150.916" y="406.47" style="fill:#A55C20;" width="210.166" height="25.757"/>
</g>
<path style="fill:#BA6B24;" d="M394.833,0v23.264c-12.465,0-22.57,10.106-22.57,22.57H139.739c0-12.465-10.106-22.57-22.57-22.57V0
	H394.833z"/>
<path style="fill:#A55C20;" d="M394.833,23.264c-12.465,0-22.57,10.106-22.57,22.57H139.739c0-12.465-10.106-22.57-22.57-22.57
	H394.833z"/>
<path style="fill:#BA6B24;" d="M383.707,469.52L383.707,469.52c-7.554,0-13.678-6.124-13.678-13.678v-34.092H141.97v34.092
	c0,7.554-6.124,13.678-13.678,13.678l0,0L117.113,512h70.961c0-23.461,19.019-42.48,42.48-42.48h50.89
	c23.461,0,42.48,19.019,42.48,42.48h70.961L383.707,469.52z"/>
<rect x="177.187" y="72.966" style="fill:#3C545E;" width="157.624" height="312.409"/>
<g>
	<path style="fill:#FCD577;" d="M263.839,216.872l-2.806,24.594l-0.404,3.544c-0.759,6.662-6.774,11.445-13.436,10.684l-3.488-0.399
		l-3.487-0.396c-6.662-0.757-11.447-6.771-10.688-13.433l0,0l2.806-24.594H263.839z"/>
	<rect x="184.454" y="79.371" style="fill:#FCD577;" width="143.092" height="137.502"/>
</g>
<polygon style="fill:#EAC36E;" points="263.839,216.872 261.033,241.466 229.531,241.466 232.337,216.872 "/>
<circle style="fill:#CFDCE5;" cx="255.999" cy="147.563" r="50.686"/>
<g>
	<path style="fill:#7190A5;" d="M255.999,203.834c-31.027,0-56.271-25.243-56.271-56.271s25.243-56.272,56.271-56.272
		s56.271,25.243,56.271,56.271S287.027,203.834,255.999,203.834z M255.999,102.47c-24.864,0-45.092,20.228-45.092,45.092
		s20.228,45.092,45.092,45.092s45.092-20.228,45.092-45.092S280.863,102.47,255.999,102.47z"/>
	<path style="fill:#7190A5;" d="M250.41,147.563l5.59-32.419l5.59,32.419c0.532,3.088-1.539,6.021-4.626,6.553
		c-3.087,0.532-6.021-1.538-6.553-4.626C250.298,148.842,250.307,148.177,250.41,147.563z"/>
</g>
<g>
	
		<rect x="232.581" y="246.752" transform="matrix(-0.9935 -0.1134 0.1134 -0.9935 448.7163 583.8656)" style="fill:#FCD577;" width="16.768" height="64.835"/>
	<circle style="fill:#FCD577;" cx="235.396" cy="328.049" r="25.153"/>
</g>
<circle style="fill:#EAC36E;" cx="235.396" cy="328.049" r="14.116"/>
<g>
	<path style="fill:#A55C20;" d="M327.545,79.371v299.598H184.454V79.371H327.545 M340.96,65.956h-13.415H184.454h-13.415v13.415
		v299.598v13.415h13.415h143.092h13.415v-13.415V79.371V65.956L340.96,65.956z"/>
	<rect x="177.187" y="209.607" style="fill:#A55C20;" width="157.624" height="14.533"/>
</g>
<g>
</g>
<g>
</g>
<g>
</g>
<g>
</g>
<g>
</g>
<g>
</g>
<g>
</g>
<g>
</g>
<g>
</g>
<g>
</g>
<g>
</g>
<g>
</g>
<g>
</g>
<g>
</g>
<g>
</g>
</svg>
